<?xml version="1.0" encoding="UTF-8"?>
<svg id="_レイヤー_1" data-name="レイヤー 1" xmlns="http://www.w3.org/2000/svg" viewBox="0 0 415.01 414.06">
  <defs>
    <style>
      .cls-1 {
        fill: #000;
        stroke-width: 0px;
      }
    </style>
  </defs>
  <polygon class="cls-1" points="415.01 207.03 390.59 219.57 413.1 235.28 387.21 244.39 407.37 263.02 380.47 268.5 397.88 289.73 370.48 291.46 384.82 314.87 357.44 312.85 368.47 337.99 341.62 332.28 349.14 358.68 323.31 349.39 327.18 376.57 302.85 363.85 303 391.3 280.63 375.39 277.01 402.6 257.04 383.78 249.72 410.24 232.51 388.85 221.66 414.06 207.51 390.54 193.35 414.06 182.5 388.85 165.29 410.24 157.97 383.78 138 402.6 134.38 375.39 112.01 391.3 112.16 363.85 87.83 376.56 91.7 349.39 65.87 358.68 73.39 332.28 46.54 337.99 57.57 312.85 30.19 314.87 44.53 291.46 17.14 289.72 34.55 268.5 7.65 263.02 27.8 244.39 1.91 235.28 24.42 219.57 0 207.03 24.42 194.49 1.91 178.78 27.8 169.67 7.65 151.04 34.55 145.56 17.14 124.34 44.53 122.6 30.19 99.19 57.57 101.21 46.54 76.07 73.39 81.78 65.87 55.38 91.7 64.67 87.83 37.49 112.16 50.21 112.02 22.76 134.38 38.67 138 11.46 157.98 30.28 165.29 3.82 182.5 25.21 193.35 0 207.51 23.52 221.66 0 232.51 25.21 249.72 3.82 257.04 30.28 277.01 11.46 280.63 38.67 303 22.76 302.86 50.21 327.19 37.5 323.31 64.67 349.14 55.38 341.62 81.78 368.47 76.07 357.45 101.21 384.82 99.19 370.48 122.6 397.88 124.34 380.47 145.56 407.37 151.04 387.21 169.67 413.1 178.78 390.59 194.49 415.01 207.03"/>
</svg>